<svg xmlns="http://www.w3.org/2000/svg" id="icon linkedin"

     color="#f77c99"
     width="24" height="24"
     viewBox="0 0 24 24"
     fill="none"
     stroke="currentColor"
     stroke-width="1.5"
     stroke-linejoin="round"
>

    <path d="M 5.827 5.001 C 6.218 4.598 6.435 4.056 6.431 3.494 C 6.411 2.949 6.183 2.432 5.794 2.05 C 5.405 1.667 4.885 1.447 4.339 1.435 C 3.792 1.447 3.27 1.666 2.879 2.048 C 2.487 2.431 2.256 2.948 2.232 3.494 C 2.24 4.055 2.463 4.592 2.855 4.993 C 3.247 5.394 3.779 5.63 4.339 5.65 C 4.901 5.638 5.436 5.404 5.827 5.001 Z M 3.948 8.428 C 3.062 8.408 2.457 8.394 2.457 9.479 L 2.457 21.546 C 2.457 22.609 3.034 22.586 3.866 22.555 C 4.016 22.549 4.174 22.543 4.339 22.543 C 4.505 22.543 4.663 22.549 4.813 22.555 C 5.641 22.586 6.206 22.608 6.206 21.546 L 6.206 9.479 C 6.206 8.394 5.613 8.408 4.731 8.428 C 4.606 8.431 4.475 8.434 4.339 8.434 C 4.204 8.434 4.073 8.431 3.948 8.428 Z M 10.115 8.45 C 9.713 8.53 9.456 8.787 9.456 9.479 L 9.456 21.546 C 9.456 22.607 10.008 22.587 10.841 22.555 C 10.993 22.549 11.154 22.543 11.322 22.543 C 11.49 22.543 11.651 22.549 11.802 22.555 C 12.639 22.587 13.204 22.608 13.204 21.546 L 13.204 15.11 C 13.172 14.781 13.21 14.45 13.316 14.137 C 13.422 13.824 13.593 13.537 13.818 13.295 C 14.044 13.053 14.317 12.862 14.622 12.734 C 14.927 12.606 15.255 12.544 15.585 12.552 C 15.917 12.533 16.249 12.584 16.559 12.705 C 16.869 12.825 17.15 13.01 17.382 13.248 C 17.614 13.486 17.792 13.771 17.904 14.084 C 18.016 14.397 18.059 14.731 18.031 15.062 L 18.031 21.497 C 18.031 22.559 18.584 22.538 19.417 22.507 C 19.568 22.501 19.729 22.495 19.897 22.495 C 20.065 22.495 20.226 22.501 20.377 22.507 C 21.21 22.538 21.763 22.559 21.763 21.497 L 21.763 13.26 C 21.794 12.584 21.682 11.909 21.434 11.278 C 21.187 10.648 20.81 10.077 20.327 9.602 C 19.845 9.127 19.268 8.759 18.634 8.522 C 18 8.284 17.323 8.183 16.647 8.224 C 15.959 8.162 15.266 8.277 14.635 8.559 C 14.004 8.84 13.456 9.279 13.043 9.833 C 13.059 9.238 12.866 8.45 12.384 8.45 C 12.245 8.45 12.033 8.443 11.791 8.435 C 11.188 8.417 10.402 8.392 10.115 8.45 Z" style="" />
</svg>